<svg width="37" height="13" viewBox="0 0 37 13" fill="none" xmlns="http://www.w3.org/2000/svg">
<path d="M6.55469 9.07031C6.55469 8.83594 6.51823 8.6276 6.44531 8.44531C6.3776 8.26302 6.25521 8.09635 6.07812 7.94531C5.90104 7.79427 5.65104 7.64844 5.32812 7.50781C5.01042 7.36198 4.60417 7.21354 4.10938 7.0625C3.56771 6.89583 3.06771 6.71094 2.60938 6.50781C2.15625 6.29948 1.76042 6.0599 1.42188 5.78906C1.08333 5.51302 0.820312 5.19792 0.632812 4.84375C0.445312 4.48438 0.351562 4.07031 0.351562 3.60156C0.351562 3.13802 0.447917 2.71615 0.640625 2.33594C0.838542 1.95573 1.11719 1.6276 1.47656 1.35156C1.84115 1.07031 2.27083 0.854167 2.76562 0.703125C3.26042 0.546875 3.80729 0.46875 4.40625 0.46875C5.25 0.46875 5.97656 0.625 6.58594 0.9375C7.20052 1.25 7.67188 1.66927 8 2.19531C8.33333 2.72135 8.5 3.30208 8.5 3.9375H6.55469C6.55469 3.5625 6.47396 3.23177 6.3125 2.94531C6.15625 2.65365 5.91667 2.42448 5.59375 2.25781C5.27604 2.09115 4.8724 2.00781 4.38281 2.00781C3.91927 2.00781 3.53385 2.07812 3.22656 2.21875C2.91927 2.35938 2.6901 2.54948 2.53906 2.78906C2.38802 3.02865 2.3125 3.29948 2.3125 3.60156C2.3125 3.8151 2.36198 4.01042 2.46094 4.1875C2.5599 4.35938 2.71094 4.52083 2.91406 4.67188C3.11719 4.81771 3.3724 4.95573 3.67969 5.08594C3.98698 5.21615 4.34896 5.34115 4.76562 5.46094C5.39583 5.64844 5.94531 5.85677 6.41406 6.08594C6.88281 6.3099 7.27344 6.5651 7.58594 6.85156C7.89844 7.13802 8.13281 7.46354 8.28906 7.82812C8.44531 8.1875 8.52344 8.59635 8.52344 9.05469C8.52344 9.53385 8.42708 9.96615 8.23438 10.3516C8.04167 10.7318 7.76562 11.0573 7.40625 11.3281C7.05208 11.5938 6.625 11.7995 6.125 11.9453C5.63021 12.0859 5.07812 12.1562 4.46875 12.1562C3.92188 12.1562 3.38281 12.0833 2.85156 11.9375C2.32552 11.7917 1.84635 11.5703 1.41406 11.2734C0.981771 10.9714 0.638021 10.5964 0.382812 10.1484C0.127604 9.69531 0 9.16667 0 8.5625H1.96094C1.96094 8.93229 2.02344 9.2474 2.14844 9.50781C2.27865 9.76823 2.45833 9.98177 2.6875 10.1484C2.91667 10.3099 3.18229 10.4297 3.48438 10.5078C3.79167 10.5859 4.11979 10.625 4.46875 10.625C4.92708 10.625 5.3099 10.5599 5.61719 10.4297C5.92969 10.2995 6.16406 10.1172 6.32031 9.88281C6.47656 9.64844 6.55469 9.3776 6.55469 9.07031ZM14.4369 12.1562C13.8119 12.1562 13.2468 12.0547 12.7416 11.8516C12.2416 11.6432 11.8145 11.3542 11.4603 10.9844C11.1114 10.6146 10.8431 10.1797 10.6556 9.67969C10.4681 9.17969 10.3744 8.64062 10.3744 8.0625V7.75C10.3744 7.08854 10.4707 6.48958 10.6634 5.95312C10.8561 5.41667 11.1244 4.95833 11.4681 4.57812C11.8119 4.19271 12.2181 3.89844 12.6869 3.69531C13.1556 3.49219 13.6634 3.39062 14.2103 3.39062C14.8145 3.39062 15.3431 3.49219 15.7963 3.69531C16.2494 3.89844 16.6244 4.1849 16.9213 4.55469C17.2233 4.91927 17.4473 5.35417 17.5931 5.85938C17.7442 6.36458 17.8197 6.92188 17.8197 7.53125V8.33594H11.2884V6.98438H15.9603V6.83594C15.9499 6.4974 15.8822 6.17969 15.7572 5.88281C15.6374 5.58594 15.4525 5.34635 15.2025 5.16406C14.9525 4.98177 14.6192 4.89062 14.2025 4.89062C13.89 4.89062 13.6114 4.95833 13.3666 5.09375C13.127 5.22396 12.9265 5.41406 12.765 5.66406C12.6035 5.91406 12.4785 6.21615 12.39 6.57031C12.3067 6.91927 12.265 7.3125 12.265 7.75V8.0625C12.265 8.43229 12.3145 8.77604 12.4134 9.09375C12.5176 9.40625 12.6686 9.67969 12.8666 9.91406C13.0645 10.1484 13.3041 10.3333 13.5853 10.4688C13.8666 10.599 14.1869 10.6641 14.5463 10.6641C14.9994 10.6641 15.403 10.5729 15.7572 10.3906C16.1114 10.2083 16.4186 9.95052 16.6791 9.61719L17.6713 10.5781C17.489 10.8438 17.252 11.099 16.9603 11.3438C16.6686 11.5833 16.3119 11.7786 15.89 11.9297C15.4733 12.0807 14.989 12.1562 14.4369 12.1562ZM21.7956 5.35156V12H19.9128V3.54688H21.6863L21.7956 5.35156ZM21.4597 7.46094L20.8503 7.45312C20.8555 6.85417 20.9389 6.30469 21.1003 5.80469C21.267 5.30469 21.4961 4.875 21.7878 4.51562C22.0847 4.15625 22.4389 3.88021 22.8503 3.6875C23.2618 3.48958 23.7201 3.39062 24.2253 3.39062C24.6316 3.39062 24.9988 3.44792 25.3269 3.5625C25.6602 3.67188 25.9441 3.85156 26.1784 4.10156C26.418 4.35156 26.6003 4.67708 26.7253 5.07812C26.8503 5.47396 26.9128 5.96094 26.9128 6.53906V12H25.0222V6.53125C25.0222 6.125 24.9623 5.80469 24.8425 5.57031C24.7279 5.33073 24.5586 5.16146 24.3347 5.0625C24.1159 4.95833 23.8425 4.90625 23.5144 4.90625C23.1915 4.90625 22.9024 4.97396 22.6472 5.10938C22.392 5.24479 22.1758 5.42969 21.9988 5.66406C21.8269 5.89844 21.6941 6.16927 21.6003 6.47656C21.5066 6.78385 21.4597 7.11198 21.4597 7.46094ZM34.6309 10.25V0H36.5216V12H34.8106L34.6309 10.25ZM29.1309 7.86719V7.70312C29.1309 7.0625 29.2065 6.47917 29.3575 5.95312C29.5085 5.42188 29.7273 4.96615 30.0138 4.58594C30.3002 4.20052 30.6492 3.90625 31.0606 3.70312C31.4721 3.49479 31.9356 3.39062 32.4513 3.39062C32.9617 3.39062 33.4096 3.48958 33.795 3.6875C34.1804 3.88542 34.5085 4.16927 34.7794 4.53906C35.0502 4.90365 35.2664 5.34115 35.4278 5.85156C35.5893 6.35677 35.7039 6.91927 35.7716 7.53906V8.0625C35.7039 8.66667 35.5893 9.21875 35.4278 9.71875C35.2664 10.2188 35.0502 10.651 34.7794 11.0156C34.5085 11.3802 34.1778 11.6615 33.7872 11.8594C33.4018 12.0573 32.9513 12.1562 32.4356 12.1562C31.9252 12.1562 31.4643 12.0495 31.0528 11.8359C30.6466 11.6224 30.3002 11.3229 30.0138 10.9375C29.7273 10.5521 29.5085 10.099 29.3575 9.57812C29.2065 9.05208 29.1309 8.48177 29.1309 7.86719ZM31.0138 7.70312V7.86719C31.0138 8.2526 31.0476 8.61198 31.1153 8.94531C31.1882 9.27865 31.3002 9.57292 31.4513 9.82812C31.6023 10.0781 31.7976 10.276 32.0372 10.4219C32.282 10.5625 32.5736 10.6328 32.9122 10.6328C33.3393 10.6328 33.6908 10.5391 33.9669 10.3516C34.2429 10.1641 34.4591 9.91146 34.6153 9.59375C34.7768 9.27083 34.8861 8.91146 34.9434 8.51562V7.10156C34.9122 6.79427 34.8471 6.50781 34.7481 6.24219C34.6544 5.97656 34.5268 5.74479 34.3653 5.54688C34.2039 5.34375 34.0033 5.1875 33.7638 5.07812C33.5294 4.96354 33.2507 4.90625 32.9278 4.90625C32.5841 4.90625 32.2924 4.97917 32.0528 5.125C31.8132 5.27083 31.6153 5.47135 31.4591 5.72656C31.308 5.98177 31.196 6.27865 31.1231 6.61719C31.0502 6.95573 31.0138 7.31771 31.0138 7.70312Z" fill="white"/>
</svg>
